<svg width="1221" height="311" viewBox="0 0 1221 311" fill="none" xmlns="http://www.w3.org/2000/svg">
<path d="M205.447 175.55H167.318V215.972H205.447V175.55Z" fill="#F03C24"/>
<path d="M205.447 94.7063H167.318V135.128H205.447V94.7063Z" fill="#F03C24"/>
<path d="M243.584 135.128H205.455V175.55H243.584V135.128Z" fill="#F03C24"/>
<path d="M143.228 175.55H105.099V215.972H143.228V175.55Z" fill="#F03C24"/>
<path d="M143.228 94.7063H105.099V135.128H143.228V94.7063Z" fill="#F03C24"/>
<path d="M167.326 135.128H143.236V163.278H167.326V135.128Z" fill="#F03C24"/>
<path d="M105.099 135.128H66.9705V175.55H105.099V135.128Z" fill="#F03C24"/>
<path d="M360.375 236.482H335.835V74.4823H360.36L360.375 236.482ZM379.871 215.366V236.482H461.047V215.366H379.871ZM1071.99 156.094C1071.99 167.136 1070.36 177.765 1067.1 187.974C1063.83 198.183 1058.95 207.229 1052.42 215.088C1045.9 222.955 1037.78 229.193 1028.08 233.809C1021.44 236.962 1014.05 239.042 1005.92 240.04V218.826C1010.53 217.918 1014.75 216.432 1018.55 214.375C1025.37 210.682 1030.96 205.802 1035.31 199.722C1039.66 193.642 1042.85 186.803 1044.88 179.214C1046.91 171.617 1047.93 163.908 1047.93 156.101C1047.93 148.294 1046.91 140.585 1044.88 132.981C1042.85 125.384 1039.66 118.546 1035.31 112.473C1030.96 106.393 1025.36 101.513 1018.55 97.8202C1011.73 94.127 1003.6 92.2879 994.169 92.2879C984.737 92.2879 976.607 94.1345 969.795 97.8202C962.975 101.513 957.39 106.393 953.039 112.473C948.688 118.553 945.489 125.384 943.464 132.981C941.431 140.578 940.415 148.287 940.415 156.101C940.415 163.916 941.431 171.617 943.464 179.214C945.496 186.811 948.688 193.649 953.039 199.722C957.39 205.802 962.975 210.682 969.795 214.375C973.596 216.432 977.812 217.918 982.426 218.826V240.04C974.296 239.042 966.904 236.97 960.265 233.809C950.555 229.2 942.44 222.955 935.921 215.088C929.395 207.221 924.502 198.183 921.243 187.974C917.984 177.765 916.35 167.136 916.35 156.094C916.35 145.052 917.976 134.422 921.243 124.213C924.502 114.004 929.395 104.967 935.921 97.0996C942.44 89.2327 950.562 82.9572 960.265 78.2656C969.968 73.5815 981.274 71.2319 994.169 71.2319C1007.06 71.2319 1018.36 73.5815 1028.07 78.2656C1037.78 82.9572 1045.9 89.2327 1052.42 97.0996C1058.93 104.967 1063.83 114.004 1067.09 124.213C1070.35 134.422 1071.99 145.052 1071.99 156.094H1071.99ZM782.994 215.366H832.826V236.482H782.994V215.366ZM832.833 74.4823H783.002V95.5983H832.833V74.4823ZM856.311 236.482H908.198V215.366H856.311V236.482ZM832.833 95.5983V215.358H856.311V95.5983H832.833ZM856.311 74.4823V95.5983H908.198V74.4823H856.311ZM1221 116.932V236.692H1194.83L1114.16 113.089V236.692H1090.75V74.6925H1115.86L1197.59 200.668V116.932H1221ZM1221 95.8085V74.6925H1197.59V95.8085H1221ZM605.754 215.366V236.482H480.55V163.736H505.09L505.074 215.358H605.754V215.366ZM505.074 142.62V95.5983H605.084V74.4823H480.55V142.62H505.074ZM592.302 142.62H505.052V163.66H592.302V142.62ZM762.505 163.893V236.624H740.096V220.568C734.262 227.144 727.284 232.06 719.297 235.206C709.918 238.899 700.336 240.768 690.806 240.768C678.725 240.768 667.757 238.509 658.205 234.05C648.668 229.598 640.455 223.51 633.793 215.959C627.139 208.422 622.005 199.632 618.528 189.836C615.058 180.07 613.304 169.786 613.304 159.254C613.304 147.566 614.945 136.291 618.174 125.737C621.418 115.13 626.319 105.702 632.74 97.7152C639.183 89.6981 647.328 83.2275 656.94 78.4683C666.575 73.7091 677.964 71.2995 690.806 71.2995C699.53 71.2995 707.886 72.3279 715.654 74.3547C723.467 76.3965 730.558 79.6618 736.723 84.0607C742.896 88.467 748.195 94.1045 752.335 100.89C760.134 113.659 761.233 127.336 761.233 127.336H736.686C736.686 127.336 735.557 118.689 730.89 110.897C728.345 106.648 724.83 103.263 720.871 100.583C716.881 97.8878 712.282 95.831 707.208 94.4723C702.09 93.1061 696.572 92.4155 690.799 92.4155C681.465 92.4155 673.373 94.2922 666.741 97.9854C660.079 101.701 654.561 106.663 650.346 112.721C646.093 118.831 642.909 125.91 640.892 133.762C638.852 141.666 637.82 149.871 637.82 158.151C637.82 166.43 638.995 174.132 641.313 181.571C643.617 188.973 647.049 195.608 651.513 201.276C655.947 206.921 661.502 211.477 668.028 214.84C674.517 218.188 682.18 219.885 690.791 219.885C698.853 219.885 706.064 218.579 712.229 216.011C718.371 213.444 723.618 209.871 727.826 205.397C732.034 200.908 735.255 195.571 737.393 189.521C738.831 185.452 739.734 181.076 740.081 176.497V163.901H762.49L762.505 163.893ZM740.096 142.762H687.908V163.803H740.096V142.762Z" fill="#F03C24"/>
</svg>
